<svg id="Layer_1" data-name="Layer 1" xmlns="http://www.w3.org/2000/svg" viewBox="0 0 376.48 228.59"><defs><style>.cls-1{fill:#fff;}.cls-2,.cls-5,.cls-6{font-size:72px;font-weight:800;}.cls-2,.cls-5,.cls-6,.cls-8{fill:#231f20;}.cls-2,.cls-5{font-family:Montserrat-ExtraBold, Montserrat;}.cls-2{letter-spacing:-0.04em;}.cls-3{letter-spacing:-0.03em;}.cls-4{font-size:177.56px;font-family:LucidaHandwriting-Italic, Lucida Handwriting;font-style:italic;letter-spacing:-0.03em;}.cls-4,.cls-7{fill:#075143;}.cls-5{letter-spacing:-0.05em;}.cls-6{font-family:MontserratAlternates-ExtraBold, Montserrat Alternates;letter-spacing:-0.03em;}</style></defs><title>PhoSaigon_logo_web</title><ellipse class="cls-1" cx="251.01" cy="374.54" rx="19.94" ry="38.09" transform="translate(-258.45 376.25) rotate(-86.33)"/><text class="cls-2" transform="translate(0 71.57)">P<tspan class="cls-3" x="50.18" y="0">HỞ</tspan></text><text class="cls-4" transform="matrix(1.1, 0.05, -0.05, 1, 73.15, 165.62)">S</text><text class="cls-5" transform="translate(210.88 116.87)">i<tspan class="cls-3" x="18.58" y="0">Gòn</tspan></text><text class="cls-6" transform="translate(165.91 116.76)">à</text><path class="cls-7" d="M219.74,361.42s22-15.46,50.81-3.25c28.54,12.11-26.81,31.14-46.06,8.22,0,0,18.2,4.77,32.87,4.11a52.4,52.4,0,0,0,19-4.54c3-1.3-1.29-4.11-1.29-4.11s-17.08-9.3-42.6,1.94C232.49,363.79,224.71,367,219.74,361.42Z" transform="translate(-119.62 -224.79)"/><path class="cls-8" d="M223.09,335.5l29.63,33.64,2.76.28-27.9-35.36S224.39,332.47,223.09,335.5Z" transform="translate(-119.62 -224.79)"/><path class="cls-8" d="M201.51,346.73l45.14,21.86,4.19.6L204.4,343.05A3.52,3.52,0,0,0,201.51,346.73Z" transform="translate(-119.62 -224.79)"/></svg>