<svg id="Layer_1" data-name="Layer 1" xmlns="http://www.w3.org/2000/svg" viewBox="0 0 369.43 178.17"><defs><style>.cls-1{fill:#fff;}.cls-2{fill:#231f20;}.cls-3{fill:#075143;}</style></defs><title>PhoSaigon_logo_web</title><ellipse class="cls-1" cx="251.01" cy="374.54" rx="19.94" ry="38.09" transform="translate(-263.49 376.26) rotate(-86.33)"/><path class="cls-2" d="M170.09,264.6c0,11.45-8.64,18.58-22.39,18.58h-8.79v13.18H124.66V246h23C161.45,246,170.09,253.08,170.09,264.6Zm-14.4,0c0-4.68-2.95-7.41-8.86-7.41h-7.92V272h7.92C152.74,272,155.69,269.21,155.69,264.6Z" transform="translate(-124.66 -224.78)"/><path class="cls-2" d="M222.8,246v50.41H208.54V276.7H189.1v19.66H174.84V246H189.1v18.94h19.44V246Z" transform="translate(-124.66 -224.78)"/><path class="cls-2" d="M284.14,271.16c0,15.12-11.88,26.21-28,26.21s-28-11.09-28-26.21S240,245,256.71,245c5.32,0,9.64.93,12.89.93s5.4-1.51,5.4-4.46a7.3,7.3,0,0,0-1.44-4.18l7.84-2.81a12.35,12.35,0,0,1,2.52,7.56,10.71,10.71,0,0,1-7.63,10.8A24.44,24.44,0,0,1,284.14,271.16Zm-14.4,0c0-8.72-6-14.4-13.61-14.4s-13.61,5.68-13.61,14.4,6,14.4,13.61,14.4S269.74,279.87,269.74,271.16Zm-19.08-38.38-2.81-5.33a13.88,13.88,0,0,1,8.5-2.67c5.61,0,9.43,3.39,9.43,8.29,0,4.39-2.45,7.41-7.06,9.5l-4.17-4.18c2.73-1.29,3.52-2.66,3.52-4.17,0-1.8-1.29-2.88-3.24-2.88A7,7,0,0,0,250.66,232.78Z" transform="translate(-124.66 -224.78)"/><path class="cls-3" d="M219.85,361.37q-.72,14.11,7.41,22.56t23.19,9.14A38,38,0,0,0,274,386.86q10.18-6.83,10.68-16.61.52-10.47-20.18-29.83l-10.05-9.31q-19.26-17.89-18.53-32.19.84-16.62,15.68-26.7t37-9.07q11.73.54,18.81,4.12t6.82,8.78q-.26,5.11-5.75,11.63-7.56-14.94-26.25-15.79-11.62-.54-19.92,5.64t-8.78,15.78q-.33,6.4,2.13,9.9t15.51,15.47l8.22,7.58q22.44,20.91,21.65,36.67-.93,18.36-17.56,29.7T242.5,402.86q-16.31-.75-26.59-8.17t-9.74-18Q206.53,369.53,219.85,361.37Z" transform="translate(-124.66 -224.78)"/><path class="cls-2" d="M333.38,291c0-4.1,3.31-7.27,8.35-7.27s8.35,3,8.35,7.05c0,4.32-3.31,7.49-8.35,7.49S333.38,295.14,333.38,291Zm1.51,11.59h13.68v39H334.89Z" transform="translate(-124.66 -224.78)"/><path class="cls-2" d="M387.88,315.38h12.6v20.88c-5.83,4.18-13.82,6.41-21.17,6.41-16.05,0-27.79-10.88-27.79-26.21s11.74-26.21,28.08-26.21c9.43,0,17.07,3.24,22,9.21l-9.08,8.21a15.72,15.72,0,0,0-12.24-5.61c-8.64,0-14.4,5.68-14.4,14.4,0,8.49,5.76,14.4,14.26,14.4a18.14,18.14,0,0,0,7.7-1.66Z" transform="translate(-124.66 -224.78)"/><path class="cls-2" d="M404.29,322.07c0-11.73,9.29-20.09,22-20.09s22,8.36,22,20.09-9.14,20.24-22,20.24S404.29,333.88,404.29,322.07ZM409.91,287h13.68L433.24,298h-9.79Zm24.63,35.06c0-5.9-3.53-9.21-8.21-9.21s-8.21,3.31-8.21,9.21,3.6,9.36,8.21,9.36S434.54,328.05,434.54,322.07Z" transform="translate(-124.66 -224.78)"/><path class="cls-2" d="M494.08,319.34v22.32H480.4V321.57c0-5.62-2.45-8-6.41-8-4.39,0-7.77,2.73-7.77,9.21v18.87H452.53v-39h13v4.25A16.76,16.76,0,0,1,478,302C487.1,302,494.08,307.24,494.08,319.34Z" transform="translate(-124.66 -224.78)"/><path class="cls-2" d="M331.18,302.52v39h-13v-3.89c-2.59,3.1-6.41,4.54-11.52,4.54-10.58,0-19.15-7.78-19.15-20.23s8.57-20.09,19.15-20.09c4.54,0,8.21,1.29,10.88,4v-3.39Zm-22.69-4.68L295,286.9h13.68l9.65,10.94ZM317.71,322c0-5.91-3.6-9.22-8.21-9.22s-8.21,3.31-8.21,9.22,3.6,9.36,8.21,9.36S317.71,327.94,317.71,322Z" transform="translate(-124.66 -224.78)"/><path class="cls-3" d="M219.85,361.39s22-15.46,50.81-3.25c28.54,12.11-26.81,31.14-46.05,8.22,0,0,18.2,4.77,32.86,4.11a52.32,52.32,0,0,0,19-4.54c3-1.3-1.3-4.11-1.3-4.11s-17.08-9.3-42.59,1.95C232.61,363.77,224.82,367,219.85,361.39Z" transform="translate(-124.66 -224.78)"/><path class="cls-2" d="M223.09,335.5l29.63,33.64,2.59.12-27.73-35.2S224.39,332.47,223.09,335.5Z" transform="translate(-124.66 -224.78)"/><path class="cls-2" d="M201.51,346.73l45.14,21.86,4.19.6L204.4,343.05A3.52,3.52,0,0,0,201.51,346.73Z" transform="translate(-124.66 -224.78)"/></svg>